<svg xmlns="http://www.w3.org/2000/svg" xmlns:xlink="http://www.w3.org/1999/xlink" version="1.1" width="256" height="256" viewBox="0 0 256 256" xml:space="preserve">

<defs>
</defs>
<g style="stroke: none; stroke-width: 0; stroke-dasharray: none; stroke-linecap: butt; stroke-linejoin: miter; stroke-miterlimit: 10; fill: none; fill-rule: nonzero; opacity: 1;" transform="translate(1.4065934065934016 1.4065934065934016) scale(2.81 2.81)" >
	<path d="M 36.538 73.343 c -9.771 0 -10.886 -8.528 -11.782 -15.381 C 23.759 50.341 22.831 47 18.125 47 c -1.104 0 -2 -0.896 -2 -2 s 0.896 -2 2 -2 c 4.706 0 5.634 -3.34 6.63 -10.962 c 0.896 -6.853 2.011 -15.38 11.782 -15.38 c 1.104 0 2 0.896 2 2 s -0.896 2 -2 2 c -5.958 0 -6.852 4.521 -7.816 11.898 C 28.14 37.009 27.459 42.215 24.21 45 c 3.25 2.785 3.93 7.991 4.512 12.444 c 0.964 7.377 1.858 11.898 7.816 11.898 c 1.104 0 2 0.896 2 2 S 37.642 73.343 36.538 73.343 z" style="stroke: black; stroke-width: 1; stroke-dasharray: none; stroke-linecap: butt; stroke-linejoin: miter; stroke-miterlimit: 10; fill: rgb(0,0,0); fill-rule: nonzero; opacity: 1;" transform=" matrix(1 0 0 1 0 0) " stroke-linecap="round" />
	<path d="M 53.462 73.343 c -1.104 0 -2 -0.896 -2 -2 s 0.896 -2 2 -2 c 5.958 0 6.852 -4.521 7.816 -11.898 C 61.86 52.991 62.54 47.785 65.79 45 c -3.25 -2.785 -3.93 -7.991 -4.512 -12.444 c -0.965 -7.377 -1.858 -11.898 -7.816 -11.898 c -1.104 0 -2 -0.896 -2 -2 s 0.896 -2 2 -2 c 9.771 0 10.887 8.528 11.782 15.38 C 66.24 39.66 67.169 43 71.875 43 c 1.104 0 2 0.896 2 2 s -0.896 2 -2 2 c -4.706 0 -5.635 3.341 -6.631 10.962 C 64.349 64.814 63.233 73.343 53.462 73.343 z" style="stroke: black; stroke-width: 1; stroke-dasharray: none; stroke-linecap: butt; stroke-linejoin: miter; stroke-miterlimit: 10; fill: rgb(0,0,0); fill-rule: nonzero; opacity: 1;" transform=" matrix(1 0 0 1 0 0) " stroke-linecap="round" />
	<path d="M 76.677 90 H 13.323 C 5.977 90 0 84.023 0 76.677 V 13.323 C 0 5.977 5.977 0 13.323 0 h 63.354 C 84.023 0 90 5.977 90 13.323 v 63.354 C 90 84.023 84.023 90 76.677 90 z M 13.323 4 C 8.183 4 4 8.183 4 13.323 v 63.354 C 4 81.817 8.183 86 13.323 86 h 63.354 C 81.817 86 86 81.817 86 76.677 V 13.323 C 86 8.183 81.817 4 76.677 4 H 13.323 z" style="stroke: black; stroke-width: 1; stroke-dasharray: none; stroke-linecap: butt; stroke-linejoin: miter; stroke-miterlimit: 10; fill: rgb(0,0,0); fill-rule: nonzero; opacity: 1;" transform=" matrix(1 0 0 1 0 0) " stroke-linecap="round" />
</g>
</svg>